<svg xmlns="http://www.w3.org/2000/svg" viewBox="0 0 280 160" fill="none" aria-hidden="true">
  <defs>
    <linearGradient id="v-sky" x1="0%" y1="0%" x2="100%" y2="0%">
      <stop offset="0%" stop-color="#1e3a8a"/>
      <stop offset="100%" stop-color="#0f172a"/>
    </linearGradient>
    <linearGradient id="v-body" x1="0%" y1="0%" x2="0%" y2="100%">
      <stop offset="0%" stop-color="#60a5fa"/>
      <stop offset="50%" stop-color="#2563eb"/>
      <stop offset="100%" stop-color="#1d4ed8"/>
    </linearGradient>
    <linearGradient id="v-glass" x1="0%" y1="0%" x2="0%" y2="100%">
      <stop offset="0%" stop-color="#bfdbfe"/>
      <stop offset="100%" stop-color="#3b82f6"/>
    </linearGradient>
    <filter id="v-ds" x="-10%" y="-10%" width="120%" height="120%">
      <feDropShadow dx="0" dy="5" stdDeviation="7" flood-opacity="0.45"/>
    </filter>
  </defs>
  <rect width="280" height="160" fill="url(#v-sky)"/>
  <ellipse cx="140" cy="128" rx="96" ry="12" fill="#020617" opacity="0.42"/>
  <g filter="url(#v-ds)">
    <path d="M24 48h232c14 0 26 12 26 26v28c0 10-8 18-18 18H16c-10 0-18-8-18-18V74c0-14 12-26 26-26z" fill="url(#v-body)"/>
    <rect x="36" y="28" width="64" height="44" rx="5" fill="url(#v-glass)" opacity="0.92"/>
    <rect x="108" y="28" width="100" height="44" rx="5" fill="#1e40af" opacity="0.55"/>
    <rect x="118" y="34" width="36" height="32" rx="3" fill="#93c5fd" opacity="0.3"/>
    <rect x="160" y="34" width="36" height="32" rx="3" fill="#93c5fd" opacity="0.3"/>
    <path d="M214 30h44c6 0 10 4 12 10l8 32h-64l-8-32c2-6 8-10 14-10z" fill="#1e3a8a"/>
    <circle cx="56" cy="110" r="17" fill="#0f172a" stroke="#475569" stroke-width="2.5"/>
    <circle cx="56" cy="110" r="8" fill="#1e293b"/>
    <circle cx="224" cy="110" r="17" fill="#0f172a" stroke="#475569" stroke-width="2.5"/>
    <circle cx="224" cy="110" r="8" fill="#1e293b"/>
    <path d="M40 82h200v8H40z" fill="#172554" opacity="0.5"/>
  </g>
</svg>
