<svg xmlns="http://www.w3.org/2000/svg" viewBox="0 0 280 160" fill="none" aria-hidden="true">
  <defs>
    <linearGradient id="b-sky" x1="0%" y1="0%" x2="100%" y2="100%">
      <stop offset="0%" stop-color="#831843"/>
      <stop offset="100%" stop-color="#0f172a"/>
    </linearGradient>
    <linearGradient id="b-body" x1="0%" y1="0%" x2="0%" y2="100%">
      <stop offset="0%" stop-color="#f43f5e"/>
      <stop offset="40%" stop-color="#e11d48"/>
      <stop offset="100%" stop-color="#9f1239"/>
    </linearGradient>
    <linearGradient id="b-win" x1="0%" y1="0%" x2="0%" y2="100%">
      <stop offset="0%" stop-color="#fecdd3"/>
      <stop offset="100%" stop-color="#fb7185"/>
    </linearGradient>
    <filter id="b-glow" x="-5%" y="-5%" width="110%" height="110%">
      <feDropShadow dx="0" dy="6" stdDeviation="10" flood-color="#e11d48" flood-opacity="0.35"/>
    </filter>
  </defs>
  <rect width="280" height="160" fill="url(#b-sky)"/>
  <ellipse cx="140" cy="130" rx="108" ry="12" fill="#020617" opacity="0.45"/>
  <g filter="url(#b-glow)">
    <rect x="8" y="38" width="264" height="62" rx="6" fill="url(#b-body)"/>
    <rect x="16" y="46" width="28" height="38" rx="3" fill="url(#b-win)" opacity="0.9"/>
    <rect x="50" y="46" width="28" height="38" rx="3" fill="url(#b-win)" opacity="0.85"/>
    <rect x="84" y="46" width="28" height="38" rx="3" fill="url(#b-win)" opacity="0.8"/>
    <rect x="118" y="46" width="28" height="38" rx="3" fill="url(#b-win)" opacity="0.75"/>
    <rect x="152" y="46" width="28" height="38" rx="3" fill="url(#b-win)" opacity="0.7"/>
    <rect x="186" y="46" width="28" height="38" rx="3" fill="url(#b-win)" opacity="0.65"/>
    <rect x="220" y="46" width="28" height="38" rx="3" fill="url(#b-win)" opacity="0.6"/>
    <rect x="254" y="46" width="18" height="38" rx="3" fill="#881337" opacity="0.95"/>
    <path d="M8 94h264v10c0 6-4 10-10 10H18c-6 0-10-4-10-10V94z" fill="#9f1239"/>
    <circle cx="36" cy="120" r="12" fill="#0f172a" stroke="#57534e" stroke-width="2"/>
    <circle cx="36" cy="120" r="5" fill="#44403c"/>
    <circle cx="84" cy="120" r="12" fill="#0f172a" stroke="#57534e" stroke-width="2"/>
    <circle cx="84" cy="120" r="5" fill="#44403c"/>
    <circle cx="196" cy="120" r="12" fill="#0f172a" stroke="#57534e" stroke-width="2"/>
    <circle cx="196" cy="120" r="5" fill="#44403c"/>
    <circle cx="244" cy="120" r="12" fill="#0f172a" stroke="#57534e" stroke-width="2"/>
    <circle cx="244" cy="120" r="5" fill="#44403c"/>
    <path d="M12 102h256v3H12z" fill="#4c0519" opacity="0.6"/>
  </g>
</svg>
